<svg width="14" height="14" viewBox="0 0 14 14" fill="none" xmlns="http://www.w3.org/2000/svg">
<path d="M8.36401 0.49446L5.59867 0.487793H5.59734C2.68134 0.487793 0.397339 2.77246 0.397339 5.68913C0.397339 8.42113 2.52134 10.4931 5.37401 10.6025V13.1545C5.37401 13.2265 5.40334 13.3451 5.45401 13.4231C5.54867 13.5731 5.71001 13.6545 5.87534 13.6545C5.96734 13.6545 6.06001 13.6291 6.14334 13.5758C6.31934 13.4638 10.4587 10.8158 11.5353 9.90513C12.8033 8.83179 13.562 7.25846 13.564 5.69713V5.68579C13.56 2.77446 11.2773 0.49446 8.36401 0.493793V0.49446ZM10.8887 9.14246C10.1327 9.78246 7.64734 11.4125 6.37401 12.2378V10.1131C6.37401 9.83713 6.15067 9.61313 5.87401 9.61313H5.61001C3.17001 9.61313 1.39801 7.96246 1.39801 5.68913C1.39801 3.33313 3.24334 1.48779 5.59801 1.48779L8.36267 1.49446H8.36401C10.7187 1.49446 12.564 3.33846 12.5653 5.69179C12.5633 6.96513 11.9373 8.25446 10.8893 9.14246H10.8887Z" fill="#6C757D"/>
</svg>
